<?xml version="1.0" encoding="utf-8"?>
<!-- Generator: Adobe Illustrator 28.1.0, SVG Export Plug-In . SVG Version: 6.00 Build 0)  -->
<svg version="1.1" xmlns="http://www.w3.org/2000/svg" xmlns:xlink="http://www.w3.org/1999/xlink" x="0px" y="0px"
	 viewBox="0 0 1417.32 1417.32" style="enable-background:new 0 0 1417.32 1417.32;" xml:space="preserve">
<style type="text/css">
	.st0{display:none;}
	.st1{display:inline;fill:#FFFFFF;stroke:#FFFFFF;stroke-miterlimit:10;}
	.st2{fill:#EA4234;stroke:#EA4234;stroke-width:2.7;stroke-miterlimit:10;}
	.st3{fill:#6CBE45;stroke:#6CBE45;stroke-width:3;stroke-miterlimit:10;}
	.st4{fill:#3B54A5;stroke:#3B54A5;stroke-miterlimit:10;}
	.st5{fill:#3B54A5;stroke:#3B54A5;stroke-width:3;stroke-miterlimit:10;}
	.st6{fill:#C1352A;}
	.st7{fill:#579E3A;}
	.st8{fill:#32458B;}
	.st9{fill:#FFFFFF;}
</style>
<g id="Tlo" class="st0">
	<rect x="2.68" y="2.68" class="st1" width="1414.65" height="1414.65"/>
</g>
<g id="Grafika">
	<g>
		<g>
			<polygon class="st2" points="417.01,591.03 350.93,584.7 366.08,509.13 417.34,514.04 			"/>
			<circle class="st2" cx="364.27" cy="803.06" r="219.11"/>
			<polygon class="st2" points="311.02,1015.19 377.12,1021.24 362.3,1096.74 311.02,1092.04 			"/>
			<polygon class="st2" points="302.55,592.73 242.32,620.62 217.49,548.28 264.22,526.64 			"/>
			<polygon class="st2" points="424.97,1011.96 485.09,983.82 510.86,1057.43 464.23,1079.26 			"/>
			<polygon class="st2" points="204.92,652.63 167,707.11 109,657.15 138.41,614.89 			"/>
			<polygon class="st2" points="521.61,952.29 559.3,897.65 619.27,948.57 590.03,990.96 			"/>
			<polygon class="st2" points="151.81,751.02 145.78,817.12 70.29,802.34 74.97,751.06 			"/>
			<polygon class="st2" points="576.75,855.07 582.5,788.94 657.91,803.39 653.46,854.69 			"/>
			<polygon class="st2" points="154.45,864.66 182.62,924.77 111.02,949.64 89.17,903.01 			"/>
			<polygon class="st2" points="573.89,739.94 545.47,679.95 618.81,653.91 640.85,700.44 			"/>
			<polygon class="st2" points="514.69,646.51 460.53,608.14 512,549.1 554.02,578.86 			"/>
			<polygon class="st2" points="212.86,960.04 267.19,998.18 216.33,1056.92 174.19,1027.33 			"/>
		</g>
		<g>
			<polygon class="st3" points="871.46,256.09 803.55,254.69 813.19,178.05 865.87,179.14 			"/>
			<circle class="st3" cx="833.86" cy="478.09" r="224.19"/>
			<polygon class="st3" points="795.72,701.69 863.63,702.8 854.34,777.88 801.66,777.02 			"/>
			<polygon class="st3" points="753.5,265.93 694.18,299 664.58,229.37 710.6,203.72 			"/>
			<polygon class="st3" points="913.84,690.22 973.02,656.9 1002.91,726.4 957,752.24 			"/>
			<polygon class="st3" points="657.43,335.44 622.91,393.94 562.22,348.77 589,303.39 			"/>
			<polygon class="st3" points="1010.02,620.76 1044.29,562.12 1105.17,607.03 1078.59,652.52 			"/>
			<polygon class="st3" points="610.02,441.22 608.94,509.13 533.85,499.87 534.69,447.19 			"/>
			<polygon class="st3" points="1057.56,514.92 1058.36,447 1133.49,455.94 1132.87,508.62 			"/>
			<polygon class="st3" points="622.83,557.95 656.18,617.13 586.69,647.04 560.82,601.14 			"/>
			<polygon class="st3" points="1045.28,396.27 1011.68,337.24 1082.14,306.41 1108.2,352.21 			"/>
			<polygon class="st3" points="977.67,302.97 919.46,267.97 965.13,207.66 1010.28,234.81 			"/>
			<polygon class="st3" points="689.42,653.17 747.77,687.93 702.35,748.44 657.09,721.47 			"/>
		</g>
		<g>
			<polygon class="st4" points="1164.92,747.69 1112.02,738.87 1128.38,679.43 1169.42,686.28 			"/>
			<circle class="st5" cx="1110.39" cy="916.23" r="177.02"/>
			<polygon class="st4" points="1055.52,1084.32 1108.46,1092.92 1092.29,1152.8 1051.23,1146.13 			"/>
			<polygon class="st4" points="1072.29,742.74 1022.17,761.83 1006.43,702.63 1045.3,687.82 			"/>
			<polygon class="st4" points="1147.53,1087.9 1197.57,1068.6 1214.23,1129.47 1175.42,1144.44 			"/>
			<polygon class="st4" points="990.31,785.93 956.69,827.71 912.86,784.27 938.95,751.87 			"/>
			<polygon class="st4" points="1230.21,1046.46 1263.66,1004.55 1307.72,1047.83 1281.77,1080.35 			"/>
			<polygon class="st4" points="941.29,862.2 932.71,915.14 873.51,899.11 880.16,858.04 			"/>
			<polygon class="st4" points="1276.55,969.75 1284.9,916.77 1347.03,933 1340.55,974.1 			"/>
			<polygon class="st4" points="938.46,953.83 957.79,1003.86 898.05,1020.11 883.06,981.3 			"/>
			<polygon class="st4" points="1283.23,877 1263.69,827.06 1323.92,810.33 1339.07,849.07 			"/>
			<polygon class="st4" points="1241.31,797.43 1199.82,763.46 1243.73,719.85 1275.92,746.21 			"/>
			<polygon class="st4" points="978.81,1035.12 1020.45,1068.92 976.89,1112.5 944.59,1086.28 			"/>
		</g>
		<g>
			<path class="st6" d="M274.22,920.83V700.8h40.91v220.03H274.22z M311.41,857.77v-37.65h30.22c13.53,0,23.99-3.72,31.38-11.16
				c7.38-7.44,11.08-17.82,11.08-31.14c0-12.6-3.7-22.31-11.08-29.13c-7.39-6.82-17.85-10.23-31.38-10.23h-29.6V700.8h29.6
				c27.58,0,48.91,6.48,63.99,19.45c15.08,12.97,22.62,31.28,22.62,54.93c0,26.24-7.54,46.56-22.62,60.97
				c-15.08,14.41-36.41,21.62-63.99,21.62H311.41z"/>
		</g>
		<g>
			<path class="st7" d="M738.45,583.94l-26.86-202.49h45.95l15.37,168.98h4.95l18.73-117.64h41.35l-14.84,38.93h-7.07l-14.14,112.22
				H738.45z M832.29,583.94l-14.14-112.22h-7.07l-14.49-38.93h41.35l18.38,117.64h4.95l15.37-168.98h45.95l-26.86,202.49H832.29z"/>
		</g>
		<g>
			<path class="st8" d="M1043.78,1006.36V836.74h31.53v169.62H1043.78z M1073.64,1006.36v-30.1h13.26
				c15.53,0,27.17-4.44,34.94-13.32c7.76-8.88,11.65-21.88,11.65-39c0-18.79-3.88-33.01-11.65-42.64
				c-7.76-9.63-19.41-14.45-34.94-14.45h-12.78l-2.87-30.1h15.65c53.11,0,79.67,29.07,79.67,87.2c0,54.95-26.56,82.42-79.67,82.42
				H1073.64z"/>
		</g>
		<g>
			<path class="st9" d="M1062.89,1001.03V831.42h31.53v169.62H1062.89z M1092.75,1001.03v-30.1h13.26
				c15.53,0,27.17-4.44,34.94-13.32c7.76-8.88,11.65-21.88,11.65-39c0-18.79-3.88-33.01-11.65-42.64
				c-7.76-9.63-19.41-14.45-34.94-14.45h-12.78l-2.87-30.1h15.65c53.11,0,79.67,29.07,79.67,87.2c0,54.95-26.56,82.42-79.67,82.42
				H1092.75z"/>
		</g>
		<g>
			<path class="st9" d="M758.66,576.66l-26.8-201.99h45.84l15.34,168.56h4.94l18.69-117.35h41.25l-14.81,38.83h-7.05l-14.1,111.95
				H758.66z M852.27,576.66l-14.1-111.95h-7.05l-14.46-38.83h41.25l18.33,117.35h4.94l15.34-168.56h45.84l-26.8,201.99H852.27z"/>
		</g>
		<g>
			<path class="st9" d="M299.81,913.11v-220.1h40.92v220.1H299.81z M337.01,850.03v-37.67h30.23c13.54,0,24-3.72,31.39-11.16
				c7.39-7.44,11.08-17.83,11.08-31.16c0-12.61-3.7-22.32-11.08-29.14c-7.39-6.82-17.85-10.23-31.39-10.23h-29.61v-37.67h29.61
				c27.59,0,48.93,6.49,64.02,19.45c15.09,12.97,22.63,31.29,22.63,54.95c0,26.25-7.54,46.58-22.63,60.99
				c-15.09,14.42-36.43,21.62-64.02,21.62H337.01z"/>
		</g>
	</g>
</g>
</svg>
